/* XPM */
static char *eight[] = {
/* columns rows colors chars-per-pixel */
"32 32 3 1 ",
"  c black",
". c white",
"X c None",
/* pixels */
"XXXXXXXXXXXXXXXXXXXXXXXXXXXXXXXX",
"XXXXXXXXXXXXXXXXXXXXXXXXXXXXXXXX",
"XXXXXXX                 XXXXXXXX",
"XXXXXXX                 XXXXXXXX",
"XXXXXXX                 XXXXXXXX",
"XXXX      ...........      XXXXX",
"XXXX      ...........      XXXXX",
"XXXX      ...........      XXXXX",
"XXXX   .................     XXX",
"XXXX   .................     XXX",
"XXXX   ......     ......     XXX",
"XXXX   ......     ......     XXX",
"XXXX   ......     ......     XXX",
"XXXX      ...........        XXX",
"XXXX      ...........        XXX",
"XXXX      ...........        XXX",
"XXXX   .................     XXX",
"XXXX   .................     XXX",
"XXXX   ......     ......     XXX",
"XXXX   ......     ......     XXX",
"XXXX   ......     ......     XXX",
"XXXX   .................     XXX",
"XXXX   .................     XXX",
"XXXX   .................     XXX",
"XXXX      ...........        XXX",
"XXXX      ...........        XXX",
"XXXXXXX                      XXX",
"XXXXXXX                      XXX",
"XXXXXXX                      XXX",
"XXXXXXXXXX                 XXXXX",
"XXXXXXXXXX                 XXXXX",
"XXXXXXXXXXXXXXXXXXXXXXXXXXXXXXXX"
};
