/* XPM */
static char *enemy[] = {
/* columns rows colors chars-per-pixel */
"32 32 15 1 ",
"  c black",
". c #5D2630",
"X c #48324D",
"o c #6D2949",
"O c #3E7B52",
"+ c #495B72",
"@ c #843D36",
"# c red",
"$ c #63A849",
"% c #D5A87A",
"& c #454B88",
"* c #627EFA",
"= c #6A819B",
"- c #DAAD80",
"; c #F0D3B5",
/* pixels */
"$$$$$$$$OO$$$$$          O$$$$$$",
"$$$$$$$$OO$$$$$          O$$$$$$",
"$$OO$$$$OO$$$  ..oooooo..  $$$OO",
"$$OO$$$$OO$$$  ..oooooo..  $$$OO",
"$$$$OO$$OO$  oooooooooooo..  O$$",
"$$$$OO$$OO$  oooooooooooo..  O$$",
"$$$$OOOOO  ..oooooooo..oooo  O$$",
"$$$$OOOOO  ..oooooooo..oooo  O$$",
"$$$$$$OOO  oooooooooo....oo  $$$",
"$$$$$$OOO  oooooooooo....oo  $$$",
"$$$$$$$$$  oooo..##----##    $$$",
"$$$$$$$$$  oooo..##----##    $$$",
"$$$$$$$$$  oo..--;;;;;;;;    $$$",
"$$$$$$$$$  oo..--;;;;;;;;    $$$",
"$$$$$$$  XXXXXXXX--;;;;  ..  $$$",
"$$$$$$$  XXXXXXXX--;;;;  ..  $$$",
"$$$$$  XX@@@@@@&&&&XXXX    $$$$$",
"$$$$$  XX@@@@@@&&&&XXXX    $$$$$",
"$$OO$  @@@@@@&&@@**&&&&@@  $$$OO",
"$$OO$  @@@@@@&&@@**&&&&@@  $$$OO",
"$$$$O  @@@@****--;;****----  O$$",
"$$$$O  @@@@****--;;****----  O$$",
"$$$$O  ==@@XX**--;;****----  O$$",
"$$$$O  ==@@XX**--;;****----  O$$",
"$$$  ==++@@XXXX@@@@@@@@XX  O$$$$",
"$$$  ==++@@XXXX@@@@@@@@XX  O$$$$",
"$$$  ====  XX@@@@XXXXXX@@  $$$$$",
"$$$  ====  XX@@@@XXXXXX@@  $$$$$",
"$$$$$      @@@@      @@@@  $$$$$",
"$$$$$      @@@@      @@@@  $$$$$",
"$$$$$$$$$  @@%%  $$  @@%%  $$$$$",
"$$$$$$$$$  @@%%  $$  @@%%  $$$$$"
};
