/* XPM */
static char *exit[] = {
/* columns rows colors chars-per-pixel */
"32 32 2 1 ",
"  c #222034",
". c #AC3232",
/* pixels */
"                                ",
"                                ",
"                                ",
"                                ",
"                                ",
"      ..........................",
"      ..........................",
"      ..........................",
"      ..........................",
"      ..........................",
"      ..........................",
"      ..........................",
"      ..........................",
"      ..........................",
"                   .............",
"                   .............",
"                   .............",
"                   .............",
"      ..........................",
"      ..........................",
"      ..........................",
"      ..........................",
"      ..........................",
"      ..........................",
"      ..........................",
"      ..........................",
"      ..........................",
"                                ",
"                                ",
"                                ",
"                                ",
"                                "
};
