/* XPM */
static char *exit[] = {
/* columns rows colors chars-per-pixel */
"32 32 22 1 ",
"  c #16161C",
". c #481515",
"X c #5E1C1C",
"o c #5E2626",
"O c #743030",
"+ c #7F4D1A",
"@ c #212B58",
"# c #29366F",
"$ c #626262",
"% c #797979",
"& c #8D0C0C",
"* c #BC3434",
"= c #CF3333",
"- c #9F5F21",
"; c #FF4B4B",
": c #63AB3F",
"> c #498F45",
", c #6FA341",
"< c #EE923F",
"1 c #918474",
"2 c #304CA5",
"3 c #3B5DC9",
/* pixels */
"::::::::::::::: ::::::::::::::::",
"::::::::::::: *;* ::::::::::::::",
"::::::::::: ***;*** ::::::::::::",
"::::::::: *****;***** ::::::::::",
"::::::: *******;******* ::::::::",
"::::: *********;********* ::::::",
"::: ***********=*********** ::::",
":::********** &&& **********::::",
":::******** && + && ********::::",
":::****** && ++-++ && ******::::",
":::**** && ++-----++ && ****::::",
":::** && ++---------++ && **::::",
"::: && ++-------------++ && ::::",
":::  ++-----------------++  ::::",
":::> 1<1  1<1  1  1<1  1<1 :::::",
":::> 1 1111 1111111 1111 1 >::::",
":::: 111111111111111111111 :::::",
":::> 111111111111111111111 >::::",
":::> 111111---------111111 :::::",
":::: 11@@ 1 + .o. + 1 @211 >::::",
":::> 1 #3@1  .XOX.  1@33 1 >::::",
":::>>1 3#@1  XX XX  123# 1>>::::",
":::>>1 ##@1  XXOXX  12## 1>:::::",
"::::>1----   %XOXX   ----1>>::::",
":::>>$$$$$$  XXOXX  $$$$$$>>::::",
"::::>%,%,%,         ,%,%,%>>::::",
":::::>>>>>>>%%%%%%%>>>>>>>>:::::",
"::::::::::::%%%%%%%:::::::::::::",
"::::::::::::::::::::::::::::::::",
"::::::::::::::::::::::::::::::::",
"::::::::::::::::::::::::::::::::",
"::::::::::::::::::::::::::::::::"
};
