/* XPM */
static char *five[] = {
/* columns rows colors chars-per-pixel */
"32 32 3 1 ",
"  c black",
". c white",
"X c None",
/* pixels */
"XXXXXXXXXXXXXXXXXXXXXXXXXXXXXXXX",
"XXXXXXXXXXXXXXXXXXXXXXXXXXXXXXXX",
"XXXXX                     XXXXXX",
"XXXXX                     XXXXXX",
"XXXXX                     XXXXXX",
"XXXXX   ...............     XXXX",
"XXXXX   ...............     XXXX",
"XXXXX   ...............     XXXX",
"XXXXX   ...............     XXXX",
"XXXXX   ...............     XXXX",
"XXXXX   .....               XXXX",
"XXXXX   .....               XXXX",
"XXXXX   .....               XXXX",
"XXXXX   .............       XXXX",
"XXXXX   .............       XXXX",
"XXXXX   .............       XXXX",
"XXXXX   ...............     XXXX",
"XXXXX   ...............     XXXX",
"XXXXX             .....     XXXX",
"XXXXX             .....     XXXX",
"XXXXX             .....     XXXX",
"XXXXX   ...............     XXXX",
"XXXXX   ...............     XXXX",
"XXXXX   ...............     XXXX",
"XXXXX   .............       XXXX",
"XXXXX   .............       XXXX",
"XXXXX                       XXXX",
"XXXXX                       XXXX",
"XXXXX                       XXXX",
"XXXXXXXX                  XXXXXX",
"XXXXXXXX                  XXXXXX",
"XXXXXXXXXXXXXXXXXXXXXXXXXXXXXXXX"
};
