/* XPM */
static char *four[] = {
/* columns rows colors chars-per-pixel */
"32 32 3 1 ",
"  c black",
". c white",
"X c None",
/* pixels */
"XXXXXXXXXXXXXXXXXXXXXXXXXXXXXXXX",
"XXX                     XXXXXXXX",
"XXX                     XXXXXXXX",
"XXX                     XXXXXXXX",
"XXX   ......   ......   XXXXXXXX",
"XXX   ......   ......   XXXXXXXX",
"XXX   ......   ......   XXXXXXXX",
"XXX   ......   ......   XXXXXXXX",
"XXX   ......   ......   XXXXXXXX",
"XXX   ......   ......   XXXXXXXX",
"XXX   ......   ......      XXXXX",
"XXX   ......   ......      XXXXX",
"XXX   ..................      XX",
"XXX   ..................      XX",
"XXX   ..................      XX",
"XXX   ..................      XX",
"XXX   ..................      XX",
"XXX   ..................      XX",
"XXX            ......         XX",
"XXX            ......         XX",
"XXX            ......         XX",
"XXXXXX         ......         XX",
"XXXXXX         ......         XX",
"XXXXXXXXX      ......   XXXXXXXX",
"XXXXXXXXX      ......   XXXXXXXX",
"XXXXXXXXX      ......   XXXXXXXX",
"XXXXXXXXX               XXXXXXXX",
"XXXXXXXXX               XXXXXXXX",
"XXXXXXXXX               XXXXXXXX",
"XXXXXXXXXXXX            XXXXXXXX",
"XXXXXXXXXXXX            XXXXXXXX",
"XXXXXXXXXXXXXXXXXXXXXXXXXXXXXXXX"
};
