/* XPM */
static char *key[] = {
/* columns rows colors chars-per-pixel */
"32 32 2 1 ",
"  c #AC3232",
". c #37946E",
/* pixels */
"               .                ",
"               ..               ",
"              ...               ",
"              ....              ",
"             .....              ",
"             ......             ",
"            .......             ",
"            ........            ",
"           .........            ",
"           ..........           ",
"          ...........           ",
"          ............          ",
"         .............          ",
"         ..............         ",
"        ...............         ",
"        ................        ",
"       .................        ",
"       ..................       ",
"      ...................       ",
"      ....................      ",
"     .....................      ",
"     ......................     ",
"    .......................     ",
"    ........................    ",
"   .........................    ",
"   ..........................   ",
"  ...........................   ",
"  ............................  ",
" .............................  ",
" .............................. ",
"............................... ",
"................................"
};
