/* XPM */
static char *key[] = {
/* columns rows colors chars-per-pixel */
"32 32 9 1 ",
"  c #63AB3F",
". c #3B7D4F",
"X c black",
"o c #6ABE30",
"O c #37946E",
"+ c #491675",
"@ c #8A0F36",
"# c #FF5F42",
"$ c #DE2A2A",
/* pixels */
"        ..              ..      ",
"        ..              ..      ",
"  ..    ..    ..XXXX    ..    ..",
"  ..    ..    ..XXXX    ..    ..",
"    ..  ..XXXXXXooooXX  ..  ..  ",
"    ..  ..XXXXXXooooXX  ..  ..  ",
"    ....XXooooXXOOOOooXX......  ",
"    ....XXooooXXOOOOooXX......  ",
"      XXOOXX++oooo++XXOOXX..    ",
"      XXOOXX++oooo++XXOOXX..    ",
"        XX++@@++++@@++XX        ",
"        XX++@@++++@@++XX        ",
"      XX@@####$$$$$$$$@@XX      ",
"      XX@@####$$$$$$$$@@XX      ",
"      XX##$$$$$$##$$$$##XX      ",
"      XX##$$$$$$##$$$$##XX      ",
"      XX@@$$##$$@@$$$$@@XX      ",
"      XX@@$$##$$@@$$$$@@XX      ",
"  ..  XX$$@@@@$$$$@@@@$$XX    ..",
"  ..  XX$$@@@@$$$$@@@@$$XX    ..",
"    ..  XX$$@@@@@@@@$$XX..  ..  ",
"    ..  XX$$@@@@@@@@$$XX..  ..  ",
"    ......XX$$@@@@$$XX........  ",
"    ......XX$$@@@@$$XX........  ",
"      ......XX$$$$XX  ......    ",
"      ......XX$$$$XX  ......    ",
"              XXXX              ",
"              XXXX              ",
"                                ",
"                                ",
"                                ",
"                                "
};
