/* XPM */
static char *nine[] = {
/* columns rows colors chars-per-pixel */
"32 32 3 1 ",
"  c black",
". c white",
"X c None",
/* pixels */
"XXXXXXXXXXXXXXXXXXXXXXXXXXXXXXXX",
"XXXXXXXXXXXXXXXXXXXXXXXXXXXXXXXX",
"XXXXXX                  XXXXXXXX",
"XXXXXX                  XXXXXXXX",
"XXXXXX                  XXXXXXXX",
"XXX      ............      XXXXX",
"XXX      ............      XXXXX",
"XXX      ............      XXXXX",
"XXX   ..................     XXX",
"XXX   ..................     XXX",
"XXX   ......      ......     XXX",
"XXX   ......      ......     XXX",
"XXX   ......      ......     XXX",
"XXX   ..................     XXX",
"XXX   ..................     XXX",
"XXX      ...............     XXX",
"XXX      ...............     XXX",
"XXX      ...............     XXX",
"XXXXXX            ......     XXX",
"XXXXXX            ......     XXX",
"XXXXXXXXX         ......     XXX",
"XXXXXXXXX         ......     XXX",
"XXXXXXXXX         ......     XXX",
"XXXXXXXXXXXXXXX   ......     XXX",
"XXXXXXXXXXXXXXX   ......     XXX",
"XXXXXXXXXXXXXXX              XXX",
"XXXXXXXXXXXXXXX              XXX",
"XXXXXXXXXXXXXXX              XXX",
"XXXXXXXXXXXXXXXXXX           XXX",
"XXXXXXXXXXXXXXXXXX           XXX",
"XXXXXXXXXXXXXXXXXXXXXXXXXXXXXXXX",
"XXXXXXXXXXXXXXXXXXXXXXXXXXXXXXXX"
};
