/* XPM */
static char *one[] = {
/* columns rows colors chars-per-pixel */
"32 32 3 1 ",
"  c black",
". c white",
"X c None",
/* pixels */
"XXXXXXXXXXXXXXXXXXXXXXXXXXXXXXXX",
"XXXXXXXXXXXXXXXXXXXXXXXXXXXXXXXX",
"XXXXXXXXXXXXXXXXXXXXXXXXXXXXXXXX",
"XXXXXXXXX               XXXXXXXX",
"XXXXXXXXX               XXXXXXXX",
"XXXXXXXXX               XXXXXXXX",
"XXXXXX      .........      XXXXX",
"XXXXXX      .........      XXXXX",
"XXXXXX   ............      XXXXX",
"XXXXXX   ............      XXXXX",
"XXXXXX   ............      XXXXX",
"XXXXXX   ............      XXXXX",
"XXXXXX   ............      XXXXX",
"XXXXXX      .........      XXXXX",
"XXXXXX      .........      XXXXX",
"XXXXXXXXX   .........      XXXXX",
"XXXXXXXXX   .........      XXXXX",
"XXXXXXXXX   .........      XXXXX",
"XX          .........         XX",
"XX          .........         XX",
"XX    ..................      XX",
"XX    ..................      XX",
"XX    ..................      XX",
"XX    ..................      XX",
"XX    ..................      XX",
"XX                            XX",
"XX                            XX",
"XXXXXX                        XX",
"XXXXXX                        XX",
"XXXXXXXXXXXXXXXXXXXXXXXXXXXXXXXX",
"XXXXXXXXXXXXXXXXXXXXXXXXXXXXXXXX",
"XXXXXXXXXXXXXXXXXXXXXXXXXXXXXXXX"
};
