/* XPM */
static char *player[] = {
/* columns rows colors chars-per-pixel */
"32 32 14 1 ",
"  c black",
". c #5D202B",
"X c #462D4D",
"o c #3B7D4F",
"O c #465A74",
"+ c #863A30",
"@ c #AF3A44",
"# c #63AB3F",
"$ c #D7AA76",
"% c #DCAF7D",
"& c #42478C",
"* c #5E7AFF",
"= c #69819E",
"- c #F1D4B4",
/* pixels */
"########oo#####          o######",
"########oo#####          o######",
"##oo####oo###  ..@@@@@@..  ###oo",
"##oo####oo###  ..@@@@@@..  ###oo",
"####oo##oo#  @@@@@@@@@@@@..  o##",
"####oo##oo#  @@@@@@@@@@@@..  o##",
"####ooooo  ..@@@@@@@@..@@@@  o##",
"####ooooo  ..@@@@@@@@..@@@@  o##",
"######ooo  @@@@@@@@@@....@@  ###",
"######ooo  @@@@@@@@@@....@@  ###",
"#########  @@@@..%%%%%%%%    ###",
"#########  @@@@..%%%%%%%%    ###",
"#########  @@..%%--------    ###",
"#########  @@..%%--------    ###",
"#######  XXXXXXXX%%----  ..  ###",
"#######  XXXXXXXX%%----  ..  ###",
"#####  XX++++++&&&&XXXX    #####",
"#####  XX++++++&&&&XXXX    #####",
"##oo#  ++++++&&++**&&&&++  ###oo",
"##oo#  ++++++&&++**&&&&++  ###oo",
"####o  ++++****%%--****%%%%  o##",
"####o  ++++****%%--****%%%%  o##",
"####o  ==++XX**%%--****%%%%  o##",
"####o  ==++XX**%%--****%%%%  o##",
"###  ==OO++XXXX++++++++XX  o####",
"###  ==OO++XXXX++++++++XX  o####",
"###  ====  XX++++XXXXXX++  #####",
"###  ====  XX++++XXXXXX++  #####",
"#####      ++++      ++++  #####",
"#####      ++++      ++++  #####",
"#########  ++$$  ##  ++$$  #####",
"#########  ++$$  ##  ++$$  #####"
};
