/* XPM */
static char *seven[] = {
/* columns rows colors chars-per-pixel */
"32 32 3 1 ",
"  c black",
". c white",
"X c None",
/* pixels */
"XXXXXXXXXXXXXXXXXXXXXXXXXXXXXXXX",
"XX                        XXXXXX",
"XX                        XXXXXX",
"XX                        XXXXXX",
"XX   ..................      XXX",
"XX   ..................      XXX",
"XX   ..................      XXX",
"XX   ..................      XXX",
"XX   ..................      XXX",
"XX   ..................      XXX",
"XX               ......      XXX",
"XX               ......      XXX",
"XXXXX      ............      XXX",
"XXXXX      ............      XXX",
"XXXXX      ............      XXX",
"XXXXXXXX   ............      XXX",
"XXXXXXXX   ............      XXX",
"XXXXXXXX   ............      XXX",
"XXXXXXXX         ......      XXX",
"XXXXXXXX         ......      XXX",
"XXXXXXXX         ......      XXX",
"XXXXXXXXXXX      ......      XXX",
"XXXXXXXXXXX      ......      XXX",
"XXXXXXXXXXXXXX   ......      XXX",
"XXXXXXXXXXXXXX   ......      XXX",
"XXXXXXXXXXXXXX   ......      XXX",
"XXXXXXXXXXXXXX               XXX",
"XXXXXXXXXXXXXX               XXX",
"XXXXXXXXXXXXXX               XXX",
"XXXXXXXXXXXXXXXXXXXX         XXX",
"XXXXXXXXXXXXXXXXXXXX         XXX",
"XXXXXXXXXXXXXXXXXXXXXXXXXXXXXXXX"
};
