/* XPM */
static char *six[] = {
/* columns rows colors chars-per-pixel */
"32 32 3 1 ",
"  c black",
". c white",
"X c None",
/* pixels */
"XXXXXXXXXXXXXXXXXXXXXXXXXXXXXXXX",
"XXXXXXXXXXXXXXXXXXXXXXXXXXXXXXXX",
"XXXXX           XXXXXXXXXXXXXXXX",
"XXXXX           XXXXXXXXXXXXXXXX",
"XXXXX           XXXXXXXXXXXXXXXX",
"XXXXX   .....      XXXXXXXXXXXXX",
"XXXXX   .....      XXXXXXXXXXXXX",
"XXXXX   .....      XXXXXXXXXXXXX",
"XXXXX   .....      XXXXXXXXXXXXX",
"XXXXX   .....      XXXXXXXXXXXXX",
"XXXXX   .....           XXXXXXXX",
"XXXXX   .....           XXXXXXXX",
"XXXXX   .....           XXXXXXXX",
"XXXXX   .............      XXXXX",
"XXXXX   .............      XXXXX",
"XXXXX   ................     XXX",
"XXXXX   ................     XXX",
"XXXXX   ................     XXX",
"XXXXX   .....      .....     XXX",
"XXXXX   .....      .....     XXX",
"XXXXX   ................     XXX",
"XXXXX   ................     XXX",
"XXXXX   ................     XXX",
"XXXXX      .............     XXX",
"XXXXX      .............     XXX",
"XXXXXXXX                     XXX",
"XXXXXXXX                     XXX",
"XXXXXXXX                     XXX",
"XXXXXXXXXXX                XXXXX",
"XXXXXXXXXXX                XXXXX",
"XXXXXXXXXXXXXXXXXXXXXXXXXXXXXXXX",
"XXXXXXXXXXXXXXXXXXXXXXXXXXXXXXXX"
};
