/* XPM */
static char *three[] = {
/* columns rows colors chars-per-pixel */
"32 32 3 1 ",
"  c black",
". c white",
"X c None",
/* pixels */
"XXXXXXXXXXXXXXXXXXXXXXXXXXXXXXXX",
"XXXXXXXXXXXXXXXXXXXXXXXXXXXXXXXX",
"XX                       XXXXXXX",
"XX                       XXXXXXX",
"XX                       XXXXXXX",
"XX    ................      XXXX",
"XX    ................      XXXX",
"XX    ................      XXXX",
"XX    ...................      X",
"XX    ...................      X",
"XX                 ......      X",
"XX                 ......      X",
"XX                 ......      X",
"XXXXXX      .............      X",
"XXXXXX      .............      X",
"XXXXXXXXX   ..........         X",
"XXXXXXXXX   ..........         X",
"XXXXXXXXX   ..........         X",
"XX                 ......      X",
"XX                 ......      X",
"XX    ...................      X",
"XX    ...................      X",
"XX    ...................      X",
"XX    ................         X",
"XX    ................         X",
"XX                             X",
"XX                             X",
"XX                             X",
"XXXXXX                      XXXX",
"XXXXXX                      XXXX",
"XXXXXXXXXXXXXXXXXXXXXXXXXXXXXXXX",
"XXXXXXXXXXXXXXXXXXXXXXXXXXXXXXXX"
};
