/* XPM */
static char *wall[] = {
/* columns rows colors chars-per-pixel */
"32 32 105 2 ",
"   c #3C0004",
".  c #3B000C",
"X  c #370015",
"o  c #3D0313",
"O  c #3E0816",
"+  c #3E061B",
"@  c #3E091E",
"#  c #3F0721",
"$  c #400004",
"%  c #44030C",
"&  c #48020D",
"*  c #53060C",
"=  c #5F0E0E",
"-  c #440515",
";  c #4C0514",
":  c #450A16",
">  c #4C0A15",
",  c #43051B",
"<  c #4B061B",
"1  c #45091B",
"2  c #4A0A1B",
"3  c #500816",
"4  c #50061A",
"5  c #510C1A",
"6  c #5A1113",
"7  c #551219",
"8  c #650D05",
"9  c #6A0D05",
"0  c #640E0B",
"q  c #6A0E0B",
"w  c #710F04",
"e  c #700E0B",
"r  c #651205",
"t  c #6C1305",
"y  c #66110D",
"u  c #6B110C",
"i  c #731206",
"p  c #721509",
"a  c #630F12",
"s  c #690D12",
"d  c #651212",
"f  c #6A1211",
"g  c #711210",
"h  c #440720",
"j  c #4B0621",
"k  c #440921",
"l  c #4C0B21",
"z  c #5A122A",
"x  c #942E15",
"c  c #992F13",
"v  c #942E19",
"b  c #992F19",
"n  c #953116",
"m  c #9C3215",
"M  c #963219",
"N  c #9A331A",
"B  c #9A381B",
"V  c #A23515",
"C  c #A03815",
"Z  c #A0341A",
"A  c #953421",
"S  c #9A3523",
"D  c #9B3923",
"F  c #A13822",
"G  c #A64616",
"H  c #AB4D15",
"J  c #AB4B19",
"K  c #B14914",
"L  c #B34D1D",
"P  c #AA5514",
"I  c #AE541B",
"U  c #BB5817",
"Y  c #B2521C",
"T  c #BA551C",
"R  c #B05A1F",
"E  c #AE4D22",
"W  c #B24E23",
"Q  c #AF5226",
"!  c #AF582B",
"~  c #B25422",
"^  c #BA5122",
"/  c #B55924",
"(  c #BA5B25",
")  c #B4552C",
"_  c #BB562A",
"`  c #B65E36",
"'  c #B76233",
"]  c #ECA295",
"[  c #F5AD94",
"{  c #F9AD96",
"}  c #F6AC9E",
"|  c #F9AC9C",
" . c #F8B396",
".. c #F5B29A",
"X. c #FBB49A",
"o. c #FFBB9D",
"O. c #F7ADA0",
"+. c #F9AFA6",
"@. c #F5B2A2",
"#. c #FCB5A2",
"$. c #FFB9A2",
"%. c #FFBCAB",
"&. c #FFC4A4",
"*. c #FEC1AD",
"=. c #FFC1B2",
/* pixels */
"*.%.$.$.o.X.- & %.$.o.$.X.=.$ j *.o.$.$.o.*.j   =.&.$.$.X.=.% 1 ",
"o. .@.@.@...X o o.@.@.@.X.$.X j $...#.+.@.$.j o $.| @.@.@.$.. < ",
"' ) ~ ~ ~ ! k - ! / ~ ~ Q ` . < ( R ) ) ~ / , o ' ) / / ~ ` & ; ",
"T I I I I L + - / I I Y ~ ( , < U P Y ~ I T 2 , / ~ I Y I _ - < ",
"m M x x x x , , m x x x n c + < m c v v x m 1 + m v x x x N - 2 ",
"m n n n M x , 1 m x M n n m @ , m b A M b N 2 # m M n M M m - < ",
"m n M b N N , , m n n n n m + < m b M A b m , + m n m b m N - > ",
"m B M n b N , 1 m n B n n C 1 < m m M M m N 2 @ m N M M M m 1 < ",
"m n n n 9 i , , m v x N e g - , b m N x 8 t 1 + m b N n 9 p , < ",
"C n n B 8 u 2 + m x x M g f 1 < c b M N 0 9 1 @ m n b S 9 t j 3 ",
"m M p 0 u u 2 - m N 8 0 q s - - Z N 8 q s t 2 + c N 9 t f u 2 3 ",
"V m p u u d 1 - D B 9 u u f ; 1 C S w t s r - - m V u u u u j < ",
"i t 8 0 d y @ 1 p 0 d d f f ; : i f 0 u s y - - u y f y f u 1 3 ",
"p u f f f f 2 ; s y u f d d 2 1 u f u y f t 1 2 d u f f f y j ; ",
"> < 1 1 , 1 k : < 2 1 2 # 2 : > < 1 - - 1 - 2 2 1 - 1 - 1 * k ; ",
"< , 2 2 o o o o . o l 1 . o o o 1 o O + O 2 . o O o - l , . : - ",
"o. .7 o o.} } } O. .  , ] } } } { $.% % #.{ } O.O.O.-   %.{ [ ..",
"%.#.z X &.#.#.#.#.X.. - ] #.#.#.X.$.: : $. .#.#.#.#.- o %.X...o.",
"T H 5 O L J J J J H X h G H H J K Y , o Y K J J J J , X ^ J L Y ",
"^ J 5 + W ~ W W E E , , J Q E Q W ~ 1 1 W W E ~ W E - O W E W W ",
"Z M 2 @ m x b x x M , k x x v x b m # # n b x x x x , + c n b M ",
"C M 2 O Z n n n n M , 1 x v M b b m 1 k m b b M M M , 1 m m x N ",
"B n > 1 Z n N n n n + , x b M M m m k 1 m m M n M N , , m M b b ",
"n M 2 # m n M M x v , k x N n n M N k 1 m m N D M M , , N M b n ",
"t 8 , 1 m M N M 9 9 , 1 v M b x 9 8 # , m N m S u 0 , + m M b M ",
"t r & O N n b B 9 s , j v c N N 9 u - ; N n n A i r 1 , m m c B ",
"t u > - N x 0 f f g , j x A 0 f u f ; - V B 0 q f u k O b N 8 y ",
"t t 2 : M F q t u q 1 h M M r u f q > > N N f q q 8 1 1 m A 9 8 ",
"t u 2 1 q u d q y s 1 j a q s s u y ; 1 8 8 q 0 0 f k # i 8 q r ",
"s = ; 1 6 s a a s 6 : > s s s s 0 = > > = 0 s s s s 2 1 6 0 y = ",
"< 1 , 1 1 j < < < 1 , , 1 < 1 < ; < 1 j < < < j 2 1 1 1 2 @ 1 , ",
"j 2 4 4 < 4 4 4 4 < > < 2 2 < < < 4 4 4 < 4 > < 1 > > > 2 : 2 @ "
};
