/* XPM */
static char *zero[] = {
/* columns rows colors chars-per-pixel */
"32 32 3 1 ",
"  c black",
". c white",
"X c None",
/* pixels */
"XXXXXXXXXXXXXXXXXXXXXXXXXXXXXXXX",
"XXXXXXXXXXXXXXXXXXXXXXXXXXXXXXXX",
"XXXXXX                  XXXXXXXX",
"XXXXXX                  XXXXXXXX",
"XXXXXX                  XXXXXXXX",
"XXX      ............      XXXXX",
"XXX      ............      XXXXX",
"XXX      ............      XXXXX",
"XXX   ..................      XX",
"XXX   ..................      XX",
"XXX   ......      ......      XX",
"XXX   ......      ......      XX",
"XXX   ......      ......      XX",
"XXX   ......      ......      XX",
"XXX   ......      ......      XX",
"XXX   ......      ......      XX",
"XXX   ......      ......      XX",
"XXX   ......      ......      XX",
"XXX   ......      ......      XX",
"XXX   ......      ......      XX",
"XXX   ......      ......      XX",
"XXX   ..................      XX",
"XXX   ..................      XX",
"XXX   ..................      XX",
"XXX      ............         XX",
"XXX      ............         XX",
"XXXXXX                        XX",
"XXXXXX                        XX",
"XXXXXX                        XX",
"XXXXXXXXX                  XXXXX",
"XXXXXXXXX                  XXXXX",
"XXXXXXXXXXXXXXXXXXXXXXXXXXXXXXXX"
};
